<?xml version="1.0" encoding="UTF-8"?>
<svg version="1.1" xmlns="http://www.w3.org/2000/svg" width="1280" height="896">
<path d="M0 0 C422.4 0 844.8 0 1280 0 C1280 295.68 1280 591.36 1280 896 C857.6 896 435.2 896 0 896 C0 600.32 0 304.64 0 0 Z " fill="#00943F" transform="translate(0,0)"/>
<path d="M0 0 C2.59764967 1.42583286 5.13606716 2.88631952 7.64477539 4.46435547 C8.62397949 5.07802979 9.60318359 5.6917041 10.61206055 6.32397461 C11.6489502 6.98002686 12.68583984 7.6360791 13.75415039 8.31201172 C14.83100098 8.9893335 15.90785156 9.66665527 17.01733398 10.36450195 C23.75801574 14.6129701 30.46931619 18.90485061 37.14770508 23.25048828 C42.7432817 26.89120853 48.36926175 30.48247589 54.00415039 34.06201172 C62.01402861 39.1508467 70.01334054 44.25578428 78.00415039 49.37451172 C85.82971928 54.386791 93.66154216 59.38893493 101.50415039 64.37451172 C110.4102699 70.03616679 119.30094023 75.72165809 128.18774414 81.41357422 C134.9527365 85.74517625 141.72508306 90.06497495 148.50415039 94.37451172 C161.58558863 102.69142286 174.63730905 111.05465319 187.69067383 119.41552734 C199.51541204 126.98887825 211.34602659 134.55257939 223.19628906 142.0859375 C231.20406521 147.17858636 239.19640016 152.29519194 247.18774414 157.41357422 C253.95273635 161.74517615 260.72505728 166.06501566 267.50415039 170.37451172 C276.4102699 176.03616679 285.30094023 181.72165809 294.18774414 187.41357422 C300.9527365 191.74517625 307.72508306 196.06497495 314.50415039 200.37451172 C327.58558863 208.69142286 340.63730905 217.05465319 353.69067383 225.41552734 C365.51541204 232.98887825 377.34602659 240.55257939 389.19628906 248.0859375 C397.20406521 253.17858636 405.19640016 258.29519194 413.18774414 263.41357422 C419.95273635 267.74517615 426.72505728 272.06501566 433.50415039 276.37451172 C442.4102699 282.03616679 451.30094023 287.72165809 460.18774414 293.41357422 C466.95273694 297.74517653 473.72515649 302.06485898 480.50415039 306.37451172 C488.55059613 311.49203355 496.5931201 316.61564731 504.62915039 321.74951172 C505.6359082 322.39146484 506.64266602 323.03341797 507.67993164 323.69482422 C514.679648 328.17020429 521.60645164 332.74400614 528.50415039 337.37451172 C527.31105847 340.95378748 526.49216469 341.29914205 523.36743164 343.23779297 C522.49175537 343.78741699 521.6160791 344.33704102 520.71386719 344.90332031 C519.75778564 345.49193848 518.8017041 346.08055664 517.81665039 346.68701172 C515.7878757 347.95633703 513.75923339 349.22587396 511.73071289 350.49560547 C510.69076172 351.14255371 509.65081055 351.78950195 508.5793457 352.45605469 C503.93037105 355.35631214 499.31117807 358.30266637 494.69165039 361.24951172 C492.86223638 362.41359476 491.03280908 363.57765692 489.20336914 364.74169922 C482.068216 369.28665152 474.94510361 373.85039119 467.82128906 378.41308594 C461.05606837 382.74487551 454.2834653 387.06481756 447.50415039 391.37451172 C435.48716686 399.01466431 423.49534683 406.69397216 411.50415039 414.37451172 C398.61749763 422.62860435 385.72676631 430.87586861 372.81201172 439.0859375 C365.86761647 443.50231552 358.93429812 447.93581587 352.00415039 452.37451172 C343.28334106 457.96010984 334.55249988 463.52955224 325.81274414 469.08544922 C318.86812742 473.50202561 311.93454518 477.93565763 305.00415039 482.37451172 C297.17854743 487.3867384 289.34672898 492.38888771 281.50415039 497.37451172 C269.48716686 505.01466431 257.49534683 512.69397216 245.50415039 520.37451172 C232.61749763 528.62860435 219.72676631 536.87586861 206.81201172 545.0859375 C199.86761647 549.50231552 192.93429812 553.93581587 186.00415039 558.37451172 C177.28334106 563.96010984 168.55249988 569.52955224 159.81274414 575.08544922 C152.86812742 579.50202561 145.93454518 583.93565763 139.00415039 588.37451172 C131.17854743 593.3867384 123.34672898 598.38888771 115.50415039 603.37451172 C103.48716686 611.01466431 91.49534683 618.69397216 79.50415039 626.37451172 C66.62776452 634.62202826 53.74772255 642.86339242 40.84277344 651.06616211 C35.84222981 654.24601593 30.84620177 657.43280734 25.85571289 660.62841797 C25.2943866 660.98785492 24.7330603 661.34729187 24.15472412 661.71762085 C21.42824398 663.46378856 18.70227589 665.21075094 15.97680664 666.95849609 C14.03267654 668.20431088 12.08526397 669.44502364 10.1340332 670.6796875 C8.45989415 671.75858402 6.80518788 672.86871725 5.17895508 674.01855469 C0.18695092 677.47374971 0.18695092 677.47374971 -2.96850586 677.01513672 C-3.8025293 676.47373047 -4.63655273 675.93232422 -5.49584961 675.37451172 C-6.09252441 675.01679687 -6.68919922 674.65908203 -7.30395508 674.29052734 C-9.54084343 672.9415116 -11.73671664 671.53809202 -13.93334961 670.12451172 C-14.76463379 669.59438477 -15.59591797 669.06425781 -16.45239258 668.51806641 C-18.22917862 667.38465072 -20.00486488 666.24950944 -21.77954102 665.11279297 C-24.43538197 663.41320753 -27.09556296 661.7206726 -29.75756836 660.03076172 C-44.75873816 650.50607842 -59.71916685 640.91765207 -74.68237305 631.33349609 C-86.50711125 623.76014519 -98.33772581 616.19644405 -110.18798828 608.66308594 C-118.19576443 603.57043708 -126.18809937 598.4538315 -134.17944336 593.33544922 C-140.94443557 589.00384728 -147.7167565 584.68400777 -154.49584961 580.37451172 C-163.40196911 574.71285665 -172.29263945 569.02736534 -181.17944336 563.33544922 C-187.94443572 559.00384719 -194.71678228 554.68404849 -201.49584961 550.37451172 C-214.57728785 542.05760057 -227.62900827 533.69437025 -240.68237305 525.33349609 C-252.50711125 517.76014519 -264.33772581 510.19644405 -276.18798828 502.66308594 C-284.19576443 497.57043708 -292.18809937 492.4538315 -300.17944336 487.33544922 C-306.94443557 483.00384728 -313.7167565 478.68400777 -320.49584961 474.37451172 C-329.40196911 468.71285665 -338.29263945 463.02736534 -347.17944336 457.33544922 C-353.94443572 453.00384719 -360.71678228 448.68404849 -367.49584961 444.37451172 C-380.57728785 436.05760057 -393.62900827 427.69437025 -406.68237305 419.33349609 C-418.50711125 411.76014519 -430.33772581 404.19644405 -442.18798828 396.66308594 C-450.19576443 391.57043708 -458.18809937 386.4538315 -466.17944336 381.33544922 C-472.94443601 377.003847 -479.71682991 372.68412373 -486.49584961 368.37451172 C-494.60595182 363.21712023 -502.71029036 358.05078738 -510.80834961 352.87451172 C-511.84024414 352.21580078 -512.87213867 351.55708984 -513.93530273 350.87841797 C-519.83203235 347.1066707 -525.6892996 343.283764 -531.49584961 339.37451172 C-530.36723945 335.98868124 -529.92004664 335.72490285 -527.01538086 333.94873047 C-525.90525635 333.2598877 -525.90525635 333.2598877 -524.77270508 332.55712891 C-523.95946777 332.06374023 -523.14623047 331.57035156 -522.30834961 331.06201172 C-520.55667678 329.97797515 -518.80538938 328.89331559 -517.05444336 327.80810547 C-516.13775879 327.24333496 -515.22107422 326.67856445 -514.27661133 326.09667969 C-509.78216205 323.31319899 -505.32721316 320.46842314 -500.87084961 317.62451172 C-499.95899902 317.04386963 -499.04714844 316.46322754 -498.10766602 315.86499023 C-486.89085848 308.72163446 -475.69398574 301.54708435 -464.49584961 294.37451172 C-451.60919685 286.12041908 -438.71846553 277.87315483 -425.80371094 269.66308594 C-418.85931569 265.24670792 -411.92599734 260.81320757 -404.99584961 256.37451172 C-396.27504028 250.78891359 -387.5441991 245.21947119 -378.80444336 239.66357422 C-371.85982664 235.24699783 -364.9262444 230.81336581 -357.99584961 226.37451172 C-350.17024665 221.36228504 -342.3384282 216.36013572 -334.49584961 211.37451172 C-322.47886608 203.73435913 -310.48704605 196.05505127 -298.49584961 188.37451172 C-285.60919685 180.12041908 -272.71846553 171.87315483 -259.80371094 163.66308594 C-252.85931569 159.24670792 -245.92599734 154.81320757 -238.99584961 150.37451172 C-230.27504028 144.78891359 -221.5441991 139.21947119 -212.80444336 133.66357422 C-205.85982664 129.24699783 -198.9262444 124.81336581 -191.99584961 120.37451172 C-184.17024665 115.36228504 -176.3384282 110.36013572 -168.49584961 105.37451172 C-156.47886608 97.73435913 -144.48704605 90.05505127 -132.49584961 82.37451172 C-119.60919685 74.12041908 -106.71846553 65.87315483 -93.80371094 57.66308594 C-86.85931569 53.24670792 -79.92599734 48.81320757 -72.99584961 44.37451172 C-64.28308204 38.79406427 -55.56033351 33.22969165 -46.82861328 27.67895508 C-38.61916659 22.45800569 -30.42426491 17.21444571 -22.23217773 11.96630859 C-20.2823876 10.71736469 -18.32950482 9.47323334 -16.37329102 8.234375 C-14.38814491 6.95125579 -12.42784765 5.629148 -10.48950195 4.27636719 C-9.52608887 3.61652832 -8.56267578 2.95668945 -7.57006836 2.27685547 C-6.71372803 1.67220459 -5.8573877 1.06755371 -4.97509766 0.44458008 C-2.49584961 -0.62548828 -2.49584961 -0.62548828 0 0 Z " fill="#FECA00" transform="translate(641.495849609375,109.62548828125)"/>
<path d="M0 0 C0.67918488 0.07854218 1.35836975 0.15708435 2.05813599 0.23800659 C9.90936891 1.15294574 17.70218897 2.1564097 25.4375 3.8125 C27.14179597 4.16729705 28.84622994 4.52143171 30.55078125 4.875 C31.43330566 5.05933594 32.31583008 5.24367188 33.22509766 5.43359375 C36.11813178 6.02411277 39.01634485 6.57832407 41.91796875 7.125 C57.16326231 10.02287571 72.08172623 13.73228134 87 18 C87.73798828 18.21043945 88.47597656 18.42087891 89.23632812 18.63769531 C95.41305251 20.41716536 101.33647313 22.51968435 107.29150391 24.92700195 C109.93903 25.97584612 112.60029711 26.96673258 115.27734375 27.9375 C172.48190925 48.71939897 223.06131437 79.56240481 270 118 C271.15354504 118.94283166 272.3071849 119.88554734 273.4609375 120.828125 C275.97540838 122.88365646 278.48852836 124.94080609 281 127 C278.69225688 135.60342829 275.48864178 143.81790663 272 152 C271.71527832 152.66950684 271.43055664 153.33901367 271.13720703 154.02880859 C256.4498164 188.03957662 230.94199339 219.2448569 201 241 C199.95585938 241.76570312 198.91171875 242.53140625 197.8359375 243.3203125 C172.12561539 261.63014487 143.00830207 274.81216715 112 281 C111.12214844 281.19980469 110.24429687 281.39960937 109.33984375 281.60546875 C95.48964021 284.68072263 81.38645607 285.37814801 67.25 285.3125 C66.46929138 285.31134186 65.68858276 285.31018372 64.88421631 285.30899048 C52.37264863 285.27244428 40.29300643 284.45743108 28 282 C26.20175781 281.67515625 26.20175781 281.67515625 24.3671875 281.34375 C20.8783619 280.66379327 17.44798288 279.86382586 14 279 C13.25911133 278.81630859 12.51822266 278.63261719 11.75488281 278.44335938 C-37.53270946 265.98801115 -83.06636778 236.35098146 -113 195 C-114.14662109 193.43572266 -114.14662109 193.43572266 -115.31640625 191.83984375 C-133.70325158 166.03430604 -146.50253562 137.00312953 -153 106 C-153.20238281 105.13890625 -153.40476562 104.2778125 -153.61328125 103.390625 C-159.99034653 75.15629016 -158.83473854 43.18934807 -153 15 C-152.8035791 14.03449219 -152.6071582 13.06898438 -152.40478516 12.07421875 C-152.07486572 10.72263672 -152.07486572 10.72263672 -151.73828125 9.34375 C-151.54919189 8.55162109 -151.36010254 7.75949219 -151.1652832 6.94335938 C-150 5 -150 5 -147.35717773 3.79321289 C-143.75037343 2.9410198 -140.22838058 2.39588861 -136.546875 1.96484375 C-135.49648041 1.83946983 -135.49648041 1.83946983 -134.42486572 1.71156311 C-132.20056091 1.44762295 -129.9753429 1.19252246 -127.75 0.9375 C-126.27206917 0.76292975 -124.79420382 0.58780418 -123.31640625 0.41210938 C-82.41458769 -4.42264734 -40.92531787 -4.77802887 0 0 Z " fill="#302681" transform="translate(573,387)"/>
<path d="M0 0 C2.34101101 -0.00216671 4.68153413 -0.02031682 7.02246094 -0.03930664 C20.87291345 -0.09200913 34.53710538 1.04774798 48.06152344 4.18530273 C49.40331665 4.49624878 49.40331665 4.49624878 50.7722168 4.81347656 C84.13966437 12.93765116 114.98543417 26.62192919 141.87402344 48.18530273 C142.87046875 48.97807617 143.86691406 49.77084961 144.89355469 50.58764648 C159.16707994 62.17877931 172.03898211 75.33110932 182.87402344 90.18530273 C183.5146875 91.05413086 184.15535156 91.92295898 184.81542969 92.81811523 C198.20867472 111.45480072 208.33169158 131.55867812 215.87402344 153.18530273 C216.47150391 154.87139648 216.47150391 154.87139648 217.08105469 156.59155273 C227.38195146 187.78151905 230.34545513 222.74752913 224.87402344 255.18530273 C220.38042577 252.29169818 216.25375389 249.13449457 212.12402344 245.74780273 C186.77023477 225.23694408 159.02876798 207.7843508 130.27783203 192.4753418 C128.23030812 191.37650813 126.19899991 190.25597237 124.17480469 189.11499023 C92.2943936 171.41599314 57.20060785 159.04494283 22.2121582 149.13574219 C19.97147752 148.49777174 17.73495109 147.84504106 15.50268555 147.17822266 C7.14593294 144.70441471 -1.23770544 142.77233311 -9.7746582 141.05761719 C-11.92752579 140.62500327 -14.07858276 140.18417955 -16.22949219 139.74194336 C-74.30887541 127.87402894 -134.61266424 125.60266569 -193.44482422 132.92578125 C-196.0251962 133.17554772 -198.53553866 133.23205411 -201.12597656 133.18530273 C-200.54343489 127.94242771 -198.01270063 123.69790458 -195.56347656 119.12280273 C-194.8868396 117.85134399 -194.8868396 117.85134399 -194.1965332 116.55419922 C-190.55213403 109.79742525 -186.6221732 103.4162524 -182.12597656 97.18530273 C-181.42988281 96.21592773 -180.73378906 95.24655273 -180.01660156 94.24780273 C-166.108069 75.30852436 -150.15129503 58.06287294 -131.12597656 44.18530273 C-130.25714844 43.54463867 -129.38832031 42.90397461 -128.49316406 42.24389648 C-106.15458337 26.19028625 -81.53819391 14.7028477 -55.12597656 7.18530273 C-54.13984375 6.90041992 -53.15371094 6.61553711 -52.13769531 6.32202148 C-42.95676182 3.8458361 -33.53320128 2.49394861 -24.12597656 1.18530273 C-23.15120361 1.03629517 -23.15120361 1.03629517 -22.15673828 0.88427734 C-14.81083614 -0.10968451 -7.39842554 -0.00076272 0 0 Z " fill="#302680" transform="translate(637.1259765625,223.814697265625)"/>
<path d="M0 0 C0.89391449 0.05885376 1.78782898 0.11770752 2.70883179 0.17834473 C21.33681015 1.43338544 39.70765991 4.1277912 58.0625 7.5 C58.76072876 7.6278891 59.45895752 7.7557782 60.17834473 7.88754272 C103.96338451 15.95311038 146.4261443 30.00023031 186.8125 48.6875 C187.71323242 49.09677734 188.61396484 49.50605469 189.54199219 49.92773438 C202.83202196 55.96733078 215.54751478 62.82050819 228.16748047 70.15185547 C230.57604944 71.55022161 232.99168859 72.93525981 235.41015625 74.31640625 C254.27216812 85.15985781 272.33550595 97.56987704 289.41015625 111.0546875 C291.88357517 113.00066994 294.41809996 114.82792289 296.99609375 116.6328125 C298.39347516 117.65070405 299.79061479 118.66892761 301.1875 119.6875 C302.19768188 120.36208252 302.19768188 120.36208252 303.22827148 121.05029297 C305.15799089 122.49130567 306.5076291 123.65946472 307.8125 125.6875 C308.23796307 129.18113987 307.58031292 132.27678121 306.8125 135.6875 C306.54276367 137.02699707 306.54276367 137.02699707 306.26757812 138.39355469 C305.68840433 141.13137793 305.04269307 143.84500868 304.375 146.5625 C304.15779297 147.48546875 303.94058594 148.4084375 303.71679688 149.359375 C302.74087235 153.40374689 301.79565877 157.00696745 299.8125 160.6875 C296.42479787 159.2082545 294.11758899 157.27916247 291.4375 154.75 C285.74914097 149.5439872 279.77738742 144.80246352 273.66455078 140.11132812 C272.45911077 139.18460441 271.25678237 138.25381443 270.05810547 137.31835938 C226.06390442 102.98741153 176.23917089 77.38574952 123.8125 58.6875 C123.07870117 58.41921387 122.34490234 58.15092773 121.58886719 57.87451172 C99.84579771 49.94317456 76.7056185 44.09256258 53.92285156 40.06396484 C51.84796734 39.69382701 49.77967437 39.29747401 47.7109375 38.89453125 C35.16628926 36.49856502 22.50459521 35.05190512 9.8125 33.6875 C8.87067871 33.58018555 7.92885742 33.47287109 6.95849609 33.36230469 C-15.00708842 30.91347824 -37.12237898 31.40129578 -59.1875 31.6875 C-60.99492676 31.70852783 -60.99492676 31.70852783 -62.83886719 31.72998047 C-85.64695843 32.08670166 -108.68900693 35.00990902 -131.1875 38.6875 C-130.65355758 35.22303986 -130.05674199 31.914214 -128.953125 28.5859375 C-128.71094238 27.85358887 -128.46875977 27.12124023 -128.21923828 26.36669922 C-127.83227783 25.22612061 -127.83227783 25.22612061 -127.4375 24.0625 C-127.17308105 23.27504395 -126.90866211 22.48758789 -126.63623047 21.67626953 C-124.4359064 15.21750857 -121.9526866 8.92752285 -119.1875 2.6875 C-118.00220703 2.61402344 -118.00220703 2.61402344 -116.79296875 2.5390625 C-110.70077242 2.13523691 -104.64545139 1.64805427 -98.58056641 0.95214844 C-65.97173874 -2.75076055 -32.69602001 -2.21610477 0 0 Z " fill="#F8FAFA" transform="translate(554.1875,353.3125)"/>
<path d="M0 0 C12.05357143 -0.53571429 12.05357143 -0.53571429 15.6875 1.875 C18.12519816 4.11504696 18.88842108 4.9665231 19.23828125 8.20703125 C19.43980708 15.28164844 19.43980708 15.28164844 17.125 19.0625 C12.22947428 23.52606757 6.34821613 22.06223741 0 22 C0 14.74 0 7.48 0 0 Z " fill="#109B4C" transform="translate(493,357)"/>
<path d="M0 0 C3.51092615 2.51870789 4.76503126 4.2536287 6.0625 8.375 C5.97904387 13.2154558 4.83529906 15.09188508 2 19 C-0.38217995 20.82633796 -1.95419833 20.99317847 -4.9375 21.4375 C-9.0407637 20.85131947 -10.3956523 19.12521724 -13 16 C-14.43304064 13.13391871 -14.30644155 11.18699217 -14 8 C-10.42694289 1.59313898 -7.48580029 -0.90345866 0 0 Z " fill="#129B4D" transform="translate(701,391)"/>
<path d="M0 0 C2.96599632 2.58735849 4.66139653 4.16237078 5.375 8.03515625 C5.48634887 11.758384 5.22207519 14.95926553 3 18 C-0.66523155 20.4434877 -3.73970357 20.84707648 -8 20 C-10.9375 17.5625 -10.9375 17.5625 -13 15 C-13.33 14.67 -13.66 14.34 -14 14 C-14.69087003 7.20644468 -14.69087003 7.20644468 -12.953125 4.171875 C-8.73838382 -0.93539961 -6.41429092 -1.63075193 0 0 Z " fill="#109B4C" transform="translate(452,362)"/>
<path d="M0 0 C2.81688332 1.72565825 3.35016436 2.92030681 5 6 C5.55359386 10.43740082 4.49336288 13.27537327 2 16.9375 C-1.93100421 19.64006539 -5.23771778 20.55976193 -10 20 C-13.0625 18.0625 -13.0625 18.0625 -15 15 C-15.84272409 10.9336517 -15.40554113 7.8883282 -13.6875 4.125 C-9.92321348 -0.61521265 -5.67460578 -1.11111162 0 0 Z " fill="#0F9A4B" transform="translate(846,473)"/>
<path d="M0 0 C5.17736185 1.42377451 9.90696488 3.48616796 14 7 C15.3125 10 15.3125 10 15 13 C13.37897032 14.71108689 11.70496537 16.37253306 10 18 C8.73863908 20.62579024 7.89639733 23.21645041 7 26 C6.01 26 5.02 26 4 26 C4.495 21.545 4.495 21.545 5 17 C2.36 16.34 -0.28 15.68 -3 15 C-4.485 17.475 -4.485 17.475 -6 20 C-7.32 19.34 -8.64 18.68 -10 18 C-8.52380364 15.18593119 -7.04354757 12.37401822 -5.5625 9.5625 C-5.14162109 8.76005859 -4.72074219 7.95761719 -4.28710938 7.13085938 C-3.88427734 6.36708984 -3.48144531 5.60332031 -3.06640625 4.81640625 C-2.69459229 4.10943604 -2.32277832 3.40246582 -1.93969727 2.67407227 C-1 1 -1 1 0 0 Z " fill="#119B4D" transform="translate(744,410)"/>
<path d="M0 0 C5.60429556 0.79895949 11.909042 1.909042 16 6 C16.3125 9.4375 16.3125 9.4375 16 13 C15.52304687 13.47179687 15.04609375 13.94359375 14.5546875 14.4296875 C12.57451825 16.42975795 12.32868157 17.94776703 11.8125 20.6875 C11.57466797 21.89986328 11.57466797 21.89986328 11.33203125 23.13671875 C11.16767578 24.05904297 11.16767578 24.05904297 11 25 C9.68 24.67 8.36 24.34 7 24 C7.33 21.36 7.66 18.72 8 16 C3.545 15.01 3.545 15.01 -1 14 C-1.33 16.31 -1.66 18.62 -2 21 C-3.32 20.67 -4.64 20.34 -6 20 C-5.46137794 14.07515739 -4.29622483 4.29622483 0 0 Z " fill="#119B4D" transform="translate(665,380)"/>
<path d="M0 0 C2.578125 -0.061875 5.15625 -0.12375 7.8125 -0.1875 C9.02450073 -0.22846802 9.02450073 -0.22846802 10.26098633 -0.27026367 C15.48913804 -0.33126205 15.48913804 -0.33126205 18 1.296875 C19.64669345 4.10139979 19.16708272 6.82542826 19 10 C19 11.32 19 12.64 19 14 C19 16 19 18 19 20 C18.01 20 17.02 20 16 20 C15.34 17.69 14.68 15.38 14 13 C11.03 13 8.06 13 5 13 C5 15.64 5 18.28 5 21 C3.68 21 2.36 21 1 21 C0.67 14.07 0.34 7.14 0 0 Z " fill="#0D994A" transform="translate(465,359)"/>
<path d="M0 0 C1.98 0 3.96 0 6 0 C8.28571429 8.42857143 8.28571429 8.42857143 8 13 C8.66 13 9.32 13 10 13 C10.103125 12.13375 10.20625 11.2675 10.3125 10.375 C11.03398414 6.83316877 12.27123261 4.15687958 14 1 C15.65 1 17.3 1 19 1 C18.67 7.93 18.34 14.86 18 22 C16.68 22 15.36 22 14 22 C14 18.7 14 15.4 14 12 C12.68 15.3 11.36 18.6 10 22 C8.68 22 7.36 22 6 22 C5.34 18.7 4.68 15.4 4 12 C3.34 14.97 2.68 17.94 2 21 C1.01 21 0.02 21 -1 21 C-1.18451025 6.21867882 -1.18451025 6.21867882 0 0 Z " fill="#109A4C" transform="translate(549,359)"/>
<path d="M0 0 C13.5917603 2.86142322 13.5917603 2.86142322 17 7 C17.5625 9.5 17.5625 9.5 17 12 C15.5 14.3125 15.5 14.3125 13 16 C8.95707189 16.59649759 4.88597157 16.29532386 1 15 C0.34 16.98 -0.32 18.96 -1 21 C-2.65 21 -4.3 21 -6 21 C-4.44761232 13.77754385 -2.81627358 6.83952155 0 0 Z " fill="#159D50" transform="translate(638,372)"/>
<path d="M0 0 C6.35206334 0 11.81504513 0.21460891 18 1 C18 2.32 18 3.64 18 5 C13.38 5 8.76 5 4 5 C4 6.32 4 7.64 4 9 C7.96 9 11.92 9 16 9 C16 10.32 16 11.64 16 13 C12.04 13 8.08 13 4 13 C4 14.65 4 16.3 4 18 C8.95 18 13.9 18 19 18 C19 19.32 19 20.64 19 22 C12.73 22 6.46 22 0 22 C0 14.74 0 7.48 0 0 Z " fill="#199E53" transform="translate(521,357)"/>
<path d="M0 0 C4.34863652 0.56444825 7.17827655 2.15427964 10.8125 4.5625 C11.78832031 5.20316406 12.76414062 5.84382813 13.76953125 6.50390625 C14.50558594 6.99761719 15.24164062 7.49132812 16 8 C15.67 9.32 15.34 10.64 15 12 C14.24074219 11.55527344 13.48148438 11.11054688 12.69921875 10.65234375 C11.70535156 10.08644531 10.71148438 9.52054687 9.6875 8.9375 C8.70136719 8.36902344 7.71523438 7.80054688 6.69921875 7.21484375 C3.987406 5.62768396 3.987406 5.62768396 1 7 C0.67 7.66 0.34 8.32 0 9 C0.721875 9.268125 1.44375 9.53625 2.1875 9.8125 C4.97590126 10.98982498 7.44095724 12.39145884 10 14 C9.67 14.99 9.34 15.98 9 17 C5.27566618 15.7874262 1.62197194 14.49140021 -2 13 C-2.66 14.32 -3.32 15.64 -4 17 C-3.34 17.226875 -2.68 17.45375 -2 17.6875 C1.92734533 19.40571358 5.41260178 21.66774607 9 24 C8.67 24.99 8.34 25.98 8 27 C4.0254496 26.30150228 0.73425902 24.37107231 -2.75 22.4375 C-3.35199219 22.10814453 -3.95398438 21.77878906 -4.57421875 21.43945312 C-6.05170503 20.6303535 -7.52616036 19.81572338 -9 19 C-8.42334609 14.2128572 -6.35917004 10.74871176 -3.9375 6.6875 C-3.56044922 6.04232422 -3.18339844 5.39714844 -2.79492188 4.73242188 C-1.86962507 3.15121848 -0.93567319 1.5750854 0 0 Z " fill="#109A4C" transform="translate(768,423)"/>
<path d="M0 0 C3.83733875 1.05338711 6.19694854 2.23218708 9.1875 4.875 C10.0625 8.625 10.0625 8.625 10.1875 11.875 C8.3125 11.6875 8.3125 11.6875 6.1875 10.875 C5.7234375 9.6375 5.7234375 9.6375 5.25 8.375 C4.899375 7.55 4.54875 6.725 4.1875 5.875 C1.63974694 4.98113836 1.63974694 4.98113836 -0.8125 4.875 C0.41289208 7.77138128 1.65092204 9.35997655 3.875 11.6875 C6.1875 14.875 6.1875 14.875 6.125 18.6875 C5.815625 19.739375 5.50625 20.79125 5.1875 21.875 C2.26975221 23.33387389 0.44021895 23.24323233 -2.8125 22.875 C-6.05942293 21.09913195 -9.13230618 19.23538763 -10.8125 15.875 C-10.852492 13.87539988 -10.85596799 11.87452758 -10.8125 9.875 C-8.875 10.5625 -8.875 10.5625 -6.8125 11.875 C-6.0625 14.5 -6.0625 14.5 -5.8125 16.875 C-3.5025 17.535 -1.1925 18.195 1.1875 18.875 C0.09498285 15.2696934 -1.46004415 13.06817825 -4 10.375 C-6.80449252 7.23533642 -6.80449252 7.23533642 -6.875 4.0625 C-5.25254098 0.72214318 -3.67954138 -0.16353517 0 0 Z " fill="#109A4C" transform="translate(795.8125,439.125)"/>
<path d="M0 0 C4.84716537 0.55928831 7.86007835 2.98507835 11.25 6.375 C11.375 9.5 11.375 9.5 11.25 12.375 C9.375 12.1875 9.375 12.1875 7.25 11.375 C6.7859375 10.1684375 6.7859375 10.1684375 6.3125 8.9375 C5.47618194 6.12992583 5.47618194 6.12992583 2.625 5.0625 C1.449375 4.7221875 1.449375 4.7221875 0.25 4.375 C1.35750597 7.79820027 2.4639159 9.60881506 4.9375 12.3125 C7.25 15.375 7.25 15.375 7.125 18.6875 C6.25 21.375 6.25 21.375 5.25 22.375 C0.24578049 22.97895753 -2.68052092 22.93520231 -6.75 19.8125 C-9.53510684 17.16633273 -9.72990405 16.55299266 -10.1875 12.5 C-10.043125 11.46875 -9.89875 10.4375 -9.75 9.375 C-7.875 10.0625 -7.875 10.0625 -5.75 11.375 C-5.46125 12.2 -5.1725 13.025 -4.875 13.875 C-3.93944594 16.71321938 -3.93944594 16.71321938 -0.625 17.6875 C0.32375 17.914375 1.2725 18.14125 2.25 18.375 C0.68650551 15.63888464 -0.82557892 13.29078349 -2.9375 10.9375 C-5.15027431 7.80909495 -5.25071459 6.13035946 -4.75 2.375 C-2.75 0.375 -2.75 0.375 0 0 Z " fill="#0D994A" transform="translate(817.75,454.625)"/>
<path d="M0 0 C2.80432309 2.58860593 3.91031421 3.99103488 4.25 7.8125 C4.1675 8.534375 4.085 9.25625 4 10 C0.63279613 8.60667426 -0.9859524 7.0210714 -3 4 C-6.93075644 4.57452746 -6.93075644 4.57452746 -10 7 C-10.25003964 10.54178598 -10.25003964 10.54178598 -10 14 C-8.87465895 15.35618499 -8.87465895 15.35618499 -5.9375 15.0625 C-4.4834375 15.0315625 -4.4834375 15.0315625 -3 15 C-3.66 14.67 -4.32 14.34 -5 14 C-5 13.01 -5 12.02 -5 11 C0.75 11.875 0.75 11.875 3 13 C2.43697042 16.94120709 1.3208055 19.7508723 -1 23 C-1.66 23 -2.32 23 -3 23 C-3 22.01 -3 21.02 -3 20 C-4.60875 20.12375 -4.60875 20.12375 -6.25 20.25 C-10 20 -10 20 -12.375 18.125 C-14.96315088 14.740495 -15.33972526 12.33051697 -15.28515625 8.03515625 C-14.72850314 4.06233063 -12.24725669 1.94619473 -9.1875 -0.375 C-5.78641191 -1.34673945 -3.39321404 -0.90889662 0 0 Z " fill="#109A4C" transform="translate(728,402)"/>
<path d="M0 0 C7.425 0.99 7.425 0.99 15 2 C15 3.32 15 4.64 15 6 C13.3745692 5.85904936 11.74965949 5.71207913 10.125 5.5625 C9.22007812 5.48128906 8.31515625 5.40007812 7.3828125 5.31640625 C5 5 5 5 3 4 C3 5.32 3 6.64 3 8 C5.97 8.33 8.94 8.66 12 9 C12 9.99 12 10.98 12 12 C4.57142857 12.14285714 4.57142857 12.14285714 1 11 C1 12.65 1 14.3 1 16 C1.69867187 16.06058594 2.39734375 16.12117188 3.1171875 16.18359375 C4.02726563 16.26738281 4.93734375 16.35117187 5.875 16.4375 C6.77992188 16.51871094 7.68484375 16.59992188 8.6171875 16.68359375 C11 17 11 17 13 18 C13 18.99 13 19.98 13 21 C7.21101581 21.20674944 2.57067277 20.59162079 -3 19 C-2.88426734 17.14523183 -2.75691885 15.29118726 -2.625 13.4375 C-2.55539062 12.40496094 -2.48578125 11.37242187 -2.4140625 10.30859375 C-2 7 -2 7 0 0 Z " fill="#139C4E" transform="translate(595,366)"/>
<path d="M0 0 C7.25581395 -0.48372093 7.25581395 -0.48372093 10.5 1.625 C12.45562482 4.72140596 12.60024477 6.39853135 12 10 C10.5 12.375 10.5 12.375 8 14 C5.24150058 14.32638734 2.79515088 14.18634339 0 14 C0 9.38 0 4.76 0 0 Z " fill="#ECF7F1" transform="translate(497,361)"/>
<path d="M0 0 C2.4375 0.4375 2.4375 0.4375 4.3125 1.5 C5.4375 3.4375 5.4375 3.4375 5.375 6.9375 C4.4375 10.4375 4.4375 10.4375 2.6875 12.4375 C-0.19550141 13.71883396 -1.60871561 13.44800518 -4.5625 12.4375 C-6.5625 10.4375 -6.5625 10.4375 -6.9375 7.5625 C-6.5625 4.4375 -6.5625 4.4375 -4.875 2.0625 C-2.5625 0.4375 -2.5625 0.4375 0 0 Z " fill="#F0F9F4" transform="translate(697.5625,394.5625)"/>
<path d="M0 0 C2 3 2 3 1.875 6 C1 9 1 9 -0.75 10.875 C-3.41685272 12.20842636 -5.05478495 12.3875283 -8 12 C-10 10 -10 10 -10.3125 6.5625 C-10 3 -10 3 -8.9375 1.0625 C-5.88907484 -0.60921702 -3.39471203 -0.37033222 0 0 Z " fill="#F3FAF6" transform="translate(845,477)"/>
<path d="M0 0 C3 0.1875 3 0.1875 6 1 C8.44897847 4.67346771 8.31537716 6.66356399 8 11 C6 13 6 13 3.0625 13.375 C0 13 0 13 -1.9375 11.4375 C-3.44640049 7.97590475 -2.8701627 5.61452199 -2 2 C-1.34 1.34 -0.68 0.68 0 0 Z " fill="#F4FAF6" transform="translate(445,365)"/>
<path d="M0 0 C2 3 2 3 2 6 C4.31 6 6.62 6 9 6 C9 6.66 9 7.32 9 8 C7.35 8.66 5.7 9.32 4 10 C4.66 12.31 5.32 14.62 6 17 C5.113125 16.443125 4.22625 15.88625 3.3125 15.3125 C1.6728125 14.6628125 1.6728125 14.6628125 0 14 C-2.87391821 15.17274994 -2.87391821 15.17274994 -5 17 C-4.34 14.69 -3.68 12.38 -3 10 C-5.475 9.01 -5.475 9.01 -8 8 C-8 7.34 -8 6.68 -8 6 C-5.69 6 -3.38 6 -1 6 C-0.67 4.02 -0.34 2.04 0 0 Z " fill="#E6E4EF" transform="translate(709,369)"/>
<path d="M0 0 C0.66 0 1.32 0 2 0 C2.33 1.98 2.66 3.96 3 6 C5.31 6 7.62 6 10 6 C8.625 7.5 8.625 7.5 7 9 C6.34 9 5.68 9 5 9 C5.33 11.31 5.66 13.62 6 16 C5.0925 15.62875 4.185 15.2575 3.25 14.875 C0.11902985 13.69640701 0.11902985 13.69640701 -2.375 14.875 C-2.91125 15.24625 -3.4475 15.6175 -4 16 C-3.67 13.69 -3.34 11.38 -3 9 C-5.475 8.01 -5.475 8.01 -8 7 C-8 6.67 -8 6.34 -8 6 C-5.69 6 -3.38 6 -1 6 C-0.67 4.02 -0.34 2.04 0 0 Z " fill="#F0EFF6" transform="translate(476,493)"/>
<path d="M0 0 C0.66 0 1.32 0 2 0 C2.33 1.98 2.66 3.96 3 6 C5.31 6 7.62 6 10 6 C8.625 7.5 8.625 7.5 7 9 C6.34 9 5.68 9 5 9 C5.33 11.31 5.66 13.62 6 16 C5.0925 15.62875 4.185 15.2575 3.25 14.875 C0.11902985 13.69640701 0.11902985 13.69640701 -2.375 14.875 C-2.91125 15.24625 -3.4475 15.6175 -4 16 C-3.9071875 14.3603125 -3.9071875 14.3603125 -3.8125 12.6875 C-3.64402086 9.07873917 -3.64402086 9.07873917 -5.5 7.0625 C-5.995 6.711875 -6.49 6.36125 -7 6 C-5.02 6 -3.04 6 -1 6 C-0.67 4.02 -0.34 2.04 0 0 Z " fill="#F1F0F6" transform="translate(549,558)"/>
<path d="M0 0 C0.66 0 1.32 0 2 0 C2.33 1.98 2.66 3.96 3 6 C4.98 6 6.96 6 9 6 C8.484375 6.350625 7.96875 6.70125 7.4375 7.0625 C5.59853617 9.09468727 5.59853617 9.09468727 6.3125 12.6875 C6.6528125 14.3271875 6.6528125 14.3271875 7 16 C6.443125 15.649375 5.88625 15.29875 5.3125 14.9375 C2.42802833 13.76811959 0.96830334 14.23889658 -2 15 C-2.99 15 -3.98 15 -5 15 C-4.773125 14.071875 -4.54625 13.14375 -4.3125 12.1875 C-3.63680017 9.03173152 -3.63680017 9.03173152 -5.4375 7.125 C-5.953125 6.75375 -6.46875 6.3825 -7 6 C-5.02 6 -3.04 6 -1 6 C-0.67 4.02 -0.34 2.04 0 0 Z " fill="#EDECF4" transform="translate(639,540)"/>
<path d="M0 0 C0.66 0 1.32 0 2 0 C2.33 1.98 2.66 3.96 3 6 C4.98 6 6.96 6 9 6 C8.505 6.350625 8.01 6.70125 7.5 7.0625 C5.26936034 9.94374289 5.80019379 12.47009026 6 16 C5.01 15.34 4.02 14.68 3 14 C0.48400985 14.33652369 0.48400985 14.33652369 -2 15 C-2.99 15 -3.98 15 -5 15 C-4.773125 14.071875 -4.54625 13.14375 -4.3125 12.1875 C-3.63680017 9.03173152 -3.63680017 9.03173152 -5.4375 7.125 C-5.953125 6.75375 -6.46875 6.3825 -7 6 C-5.02 6 -3.04 6 -1 6 C-0.67 4.02 -0.34 2.04 0 0 Z " fill="#EFEEF5" transform="translate(796,518)"/>
<path d="M0 0 C2 3 2 3 2 6 C3.98 6 5.96 6 8 6 C7.01 7.485 7.01 7.485 6 9 C5.34 9 4.68 9 4 9 C4.66 11.31 5.32 13.62 6 16 C5.443125 15.649375 4.88625 15.29875 4.3125 14.9375 C1.42840819 13.76827359 -0.05190765 14.14660484 -3 15 C-3.99 15.495 -3.99 15.495 -5 16 C-4.9071875 14.3603125 -4.9071875 14.3603125 -4.8125 12.6875 C-4.64402086 9.07873917 -4.64402086 9.07873917 -6.5 7.0625 C-6.995 6.711875 -7.49 6.36125 -8 6 C-6.02 6 -4.04 6 -2 6 C-1.34 4.02 -0.68 2.04 0 0 Z " fill="#F1F0F6" transform="translate(457,399)"/>
<path d="M0 0 C0.66 0 1.32 0 2 0 C2.33 0.99 2.66 1.98 3 3 C4.65 3.33 6.3 3.66 8 4 C7.01 5.485 7.01 5.485 6 7 C5.83300768 10.12521833 5.83300768 10.12521833 6 13 C5.0925 12.62875 4.185 12.2575 3.25 11.875 C0.11902985 10.69640701 0.11902985 10.69640701 -2.375 11.875 C-2.91125 12.24625 -3.4475 12.6175 -4 13 C-3.34 11.02 -2.68 9.04 -2 7 C-3.32 6.34 -4.64 5.68 -6 5 C-6 4.67 -6 4.34 -6 4 C-4.35 3.67 -2.7 3.34 -1 3 C-0.67 2.01 -0.34 1.02 0 0 Z " fill="#E2E1ED" transform="translate(706,592)"/>
<path d="M0 0 C0.66 0 1.32 0 2 0 C2.33 0.99 2.66 1.98 3 3 C4.65 3.33 6.3 3.66 8 4 C8 4.66 8 5.32 8 6 C6.68 6.33 5.36 6.66 4 7 C4.66 8.98 5.32 10.96 6 13 C5.0925 12.62875 4.185 12.2575 3.25 11.875 C0.11902985 10.69640701 0.11902985 10.69640701 -2.375 11.875 C-2.91125 12.24625 -3.4475 12.6175 -4 13 C-3.34 11.02 -2.68 9.04 -2 7 C-3.32 6.67 -4.64 6.34 -6 6 C-6 5.34 -6 4.68 -6 4 C-4.35 3.67 -2.7 3.34 -1 3 C-0.67 2.01 -0.34 1.02 0 0 Z " fill="#E2E1ED" transform="translate(639,477)"/>
<path d="M0 0 C2 2 2 2 2 5 C3.65 5 5.3 5 7 5 C6.01 6.485 6.01 6.485 5 8 C4.83300768 11.12521833 4.83300768 11.12521833 5 14 C4.01 13.34 3.02 12.68 2 12 C-0.28397032 12.34605611 -1.93409037 12.96704519 -4 14 C-3.9071875 12.6078125 -3.9071875 12.6078125 -3.8125 11.1875 C-3.69105736 8.01604897 -3.69105736 8.01604897 -5.5 6.125 C-5.995 5.75375 -6.49 5.3825 -7 5 C-5.02 5 -3.04 5 -1 5 C-0.67 3.35 -0.34 1.7 0 0 Z " fill="#EAE9F2" transform="translate(792,557)"/>
<path d="M0 0 C0.66 0 1.32 0 2 0 C2.33 1.65 2.66 3.3 3 5 C4.65 5 6.3 5 8 5 C7.505 5.391875 7.01 5.78375 6.5 6.1875 C4.54406857 8.55091715 4.75792027 10.01435003 5 13 C4.236875 12.814375 3.47375 12.62875 2.6875 12.4375 C-0.08967375 11.77180827 -0.08967375 11.77180827 -3 13 C-2.938125 12.236875 -2.87625 11.47375 -2.8125 10.6875 C-2.74101915 7.95474688 -2.74101915 7.95474688 -4.5 6.1875 C-4.995 5.795625 -5.49 5.40375 -6 5 C-4.35 4.67 -2.7 4.34 -1 4 C-0.67 2.68 -0.34 1.36 0 0 Z " fill="#EBEAF3" transform="translate(805,539)"/>
<path d="M0 0 C2 3 2 3 2 5 C3.65 5 5.3 5 7 5 C6.484375 5.37125 5.96875 5.7425 5.4375 6.125 C3.63680017 8.03173152 3.63680017 8.03173152 4.3125 11.1875 C4.6528125 12.5796875 4.6528125 12.5796875 5 14 C4.01 13.34 3.02 12.68 2 12 C-1.14221967 12.31506627 -1.14221967 12.31506627 -4 13 C-3.938125 12.236875 -3.87625 11.47375 -3.8125 10.6875 C-3.74101915 7.95474688 -3.74101915 7.95474688 -5.5 6.1875 C-5.995 5.795625 -6.49 5.40375 -7 5 C-5.824375 4.87625 -5.824375 4.87625 -4.625 4.75 C-1.85250896 4.27193661 -1.85250896 4.27193661 -0.6875 1.9375 C-0.460625 1.298125 -0.23375 0.65875 0 0 Z " fill="#ECEBF3" transform="translate(752,586)"/>
<path d="M0 0 C2 2 2 2 2 5 C3.65 5 5.3 5 7 5 C6.67 5.66 6.34 6.32 6 7 C5.34 7 4.68 7 4 7 C4.33 8.98 4.66 10.96 5 13 C3.6078125 12.7215625 3.6078125 12.7215625 2.1875 12.4375 C-1.01343771 11.75876119 -1.01343771 11.75876119 -4 13 C-3.67 11.02 -3.34 9.04 -3 7 C-3.99 6.67 -4.98 6.34 -6 6 C-6 5.67 -6 5.34 -6 5 C-4.35 5 -2.7 5 -1 5 C-0.67 3.35 -0.34 1.7 0 0 Z " fill="#EDECF4" transform="translate(523,517)"/>
<path d="M0 0 C0.66 0.33 1.32 0.66 2 1 C2 2.32 2 3.64 2 5 C3.65 5 5.3 5 7 5 C6.67 5.66 6.34 6.32 6 7 C5.34 7 4.68 7 4 7 C4.33 8.98 4.66 10.96 5 13 C4.071875 12.835 3.14375 12.67 2.1875 12.5 C-0.95621353 11.92251612 -0.95621353 11.92251612 -4 12 C-3.67 10.35 -3.34 8.7 -3 7 C-3.99 6.67 -4.98 6.34 -6 6 C-6 5.67 -6 5.34 -6 5 C-4.35 5 -2.7 5 -1 5 C-0.67 3.35 -0.34 1.7 0 0 Z " fill="#EBEAF3" transform="translate(554,450)"/>
<path d="M0 0 C2 2 2 2 2 5 C3.65 5 5.3 5 7 5 C6.67 5.66 6.34 6.32 6 7 C5.34 7 4.68 7 4 7 C4.33 8.98 4.66 10.96 5 13 C4.2575 12.62875 3.515 12.2575 2.75 11.875 C0.05716353 10.70484137 0.05716353 10.70484137 -2.3125 11.875 C-3.1478125 12.431875 -3.1478125 12.431875 -4 13 C-3.67 11.02 -3.34 9.04 -3 7 C-3.99 6.67 -4.98 6.34 -6 6 C-6 5.67 -6 5.34 -6 5 C-4.35 5 -2.7 5 -1 5 C-0.67 3.35 -0.34 1.7 0 0 Z " fill="#ECEBF3" transform="translate(449,515)"/>
<path d="M0 0 C0.66 0.33 1.32 0.66 2 1 C2.33 1.99 2.66 2.98 3 4 C5.00016466 5.20882096 5.00016466 5.20882096 7 6 C6.690625 6.598125 6.38125 7.19625 6.0625 7.8125 C4.89790296 10.08956772 4.89790296 10.08956772 4 13 C3.4225 12.62875 2.845 12.2575 2.25 11.875 C0 10.70833333 0 10.70833333 -2.25 11.875 C-3.11625 12.431875 -3.11625 12.431875 -4 13 C-3.79375 12.236875 -3.5875 11.47375 -3.375 10.6875 C-2.66608797 7.78114056 -2.66608797 7.78114056 -5 5 C-3.68 5 -2.36 5 -1 5 C-0.67 3.35 -0.34 1.7 0 0 Z " fill="#F0F0F6" transform="translate(665,497)"/>
<path d="M0 0 C3.40312738 1.05875074 6.01353231 2.00902154 9 4 C8.67 5.65 8.34 7.3 8 9 C4.04179141 8.43454163 1.3340947 7.19097652 -2 5 C-1.34 3.35 -0.68 1.7 0 0 Z " fill="#E7F5ED" transform="translate(745,415)"/>
<path d="M0 0 C6.625 0.75 6.625 0.75 10 3 C9.67 4.32 9.34 5.64 9 7 C1.25 6.125 1.25 6.125 -1 5 C-0.67 3.35 -0.34 1.7 0 0 Z " fill="#EFF8F3" transform="translate(667,385)"/>
<path d="M0 0 C0.66 0.66 1.32 1.32 2 2 C4.06874034 2.6425235 4.06874034 2.6425235 6 3 C6 3.66 6 4.32 6 5 C5.01 5.495 5.01 5.495 4 6 C4 7.65 4 9.3 4 11 C3.401875 10.649375 2.80375 10.29875 2.1875 9.9375 C-0.10813214 8.66695302 -0.10813214 8.66695302 -3 10 C-3 8.68 -3 7.36 -3 6 C-3.66 5.67 -4.32 5.34 -5 5 C-5 4.34 -5 3.68 -5 3 C-3.68 3 -2.36 3 -1 3 C-0.67 2.01 -0.34 1.02 0 0 Z " fill="#D6D4E6" transform="translate(689,568)"/>
<path d="M0 0 C4.455 0.99 4.455 0.99 9 2 C9.33 3.65 9.66 5.3 10 7 C6.37 6.67 2.74 6.34 -1 6 C-0.67 4.02 -0.34 2.04 0 0 Z " fill="#EEF7F2" transform="translate(640,377)"/>
<path d="M0 0 C3.63 0 7.26 0 11 0 C10.67 1.65 10.34 3.3 10 5 C6.7 5 3.4 5 0 5 C0 3.35 0 1.7 0 0 Z " fill="#F3FAF6" transform="translate(469,363)"/>
<path d="M0 0 C0.66 0.33 1.32 0.66 2 1 C2 1.66 2 2.32 2 3 C3.65 3 5.3 3 7 3 C6.67 3.66 6.34 4.32 6 5 C5.34 5 4.68 5 4 5 C4 6.65 4 8.3 4 10 C3.401875 9.835 2.80375 9.67 2.1875 9.5 C-0.11344336 8.8885876 -0.11344336 8.8885876 -3 9 C-2.67 7.68 -2.34 6.36 -2 5 C-2.99 4.67 -3.98 4.34 -5 4 C-5 3.67 -5 3.34 -5 3 C-3.35 3 -1.7 3 0 3 C0 2.01 0 1.02 0 0 Z " fill="#E0DFEC" transform="translate(516,541)"/>
<path d="M0 0 C0.33 0.99 0.66 1.98 1 3 C2.65 3 4.3 3 6 3 C5.01 4.485 5.01 4.485 4 6 C4 7.32 4 8.64 4 10 C3.21625 9.814375 2.4325 9.62875 1.625 9.4375 C-0.97089775 8.74037734 -0.97089775 8.74037734 -3 10 C-3 8.68 -3 7.36 -3 6 C-3.66 5.67 -4.32 5.34 -5 5 C-5 4.34 -5 3.68 -5 3 C-3.68 3 -2.36 3 -1 3 C-0.67 2.01 -0.34 1.02 0 0 Z " fill="#E2E0ED" transform="translate(751,566)"/>
<path d="M0 0 C0.66 0.33 1.32 0.66 2 1 C2 1.99 2 2.98 2 4 C3.32 4.33 4.64 4.66 6 5 C5.67 6.65 5.34 8.3 5 10 C4.01 10 3.02 10 2 10 C0.32900023 10.31088368 -1.33871537 10.64080332 -3 11 C-2.979375 10.21625 -2.95875 9.4325 -2.9375 8.625 C-2.81315937 6.01885039 -2.81315937 6.01885039 -4 4 C-2.68 4 -1.36 4 0 4 C0 2.68 0 1.36 0 0 Z " fill="#E5E4EF" transform="translate(751,610)"/>
<path d="M0 0 C0.66 0.99 1.32 1.98 2 3 C4.05003955 4.19232613 4.05003955 4.19232613 6 5 C5.01 5.495 5.01 5.495 4 6 C4 7.65 4 9.3 4 11 C3.236875 10.835 2.47375 10.67 1.6875 10.5 C-1.03596236 9.90854604 -1.03596236 9.90854604 -4 10 C-3.34 8.68 -2.68 7.36 -2 6 C-2.99 5.67 -3.98 5.34 -5 5 C-3.68 4.67 -2.36 4.34 -1 4 C-0.67 2.68 -0.34 1.36 0 0 Z " fill="#E7E6F0" transform="translate(726,573)"/>
<path d="M0 0 C0.2475 0.639375 0.495 1.27875 0.75 1.9375 C1.81562433 4.18741541 1.81562433 4.18741541 4.125 4.75 C4.74375 4.8325 5.3625 4.915 6 5 C5.01 5.33 4.02 5.66 3 6 C3.33 7.65 3.66 9.3 4 11 C3.21625 10.814375 2.4325 10.62875 1.625 10.4375 C-0.97089775 9.74037734 -0.97089775 9.74037734 -3 11 C-2.67 9.35 -2.34 7.7 -2 6 C-2.99 5.67 -3.98 5.34 -5 5 C-3.68 4.67 -2.36 4.34 -1 4 C-0.67 2.68 -0.34 1.36 0 0 Z " fill="#EBEAF3" transform="translate(617,498)"/>
<path d="M0 0 C0.66 0 1.32 0 2 0 C2 1.32 2 2.64 2 4 C3.32 4.33 4.64 4.66 6 5 C5.34 6.65 4.68 8.3 4 10 C2.02 10 0.04 10 -2 10 C-2.66 8.02 -3.32 6.04 -4 4 C-2.68 4 -1.36 4 0 4 C0 2.68 0 1.36 0 0 Z " fill="#E9E8F1" transform="translate(827,523)"/>
<path d="M0 0 C0.66 0 1.32 0 2 0 C2 1.32 2 2.64 2 4 C3.32 4.33 4.64 4.66 6 5 C5.34 6.65 4.68 8.3 4 10 C2.02 10 0.04 10 -2 10 C-2.66 8.02 -3.32 6.04 -4 4 C-2.68 4 -1.36 4 0 4 C0 2.68 0 1.36 0 0 Z " fill="#E8E7F1" transform="translate(700,431)"/>
<path d="M0 0 C0.33 1.32 0.66 2.64 1 4 C2.32 4.33 3.64 4.66 5 5 C4.49396008 7.16874252 4.00016187 8.99967627 3 11 C2.01 10.34 1.02 9.68 0 9 C-0.99 9.33 -1.98 9.66 -3 10 C-3 8.68 -3 7.36 -3 6 C-3.66 5.34 -4.32 4.68 -5 4 C-3.68 4 -2.36 4 -1 4 C-0.67 2.68 -0.34 1.36 0 0 Z " fill="#EFEEF5" transform="translate(774,570)"/>
<path d="M0 0 C2.475 0.99 2.475 0.99 5 2 C4.34 3.65 3.68 5.3 3 7 C1.35 7 -0.3 7 -2 7 C-2.33 5.35 -2.66 3.7 -3 2 C-2.01 2 -1.02 2 0 2 C0 1.34 0 0.68 0 0 Z " fill="#D9D7E7" transform="translate(628,516)"/>
<path d="M0 0 C0.66 0.33 1.32 0.66 2 1 C2 1.66 2 2.32 2 3 C2.66 3.33 3.32 3.66 4 4 C3.01 5.485 3.01 5.485 2 7 C1.01 7 0.02 7 -1 7 C-1 6.01 -1 5.02 -1 4 C-1.66 3.67 -2.32 3.34 -3 3 C-2.01 3 -1.02 3 0 3 C0 2.01 0 1.02 0 0 Z " fill="#ECEBF3" transform="translate(498,484)"/>
<path d="M0 0 C2.125 0.9375 2.125 0.9375 4 2 C3.01 3.485 3.01 3.485 2 5 C1.01 5 0.02 5 -1 5 C-1.33 3.68 -1.66 2.36 -2 1 C-1.34 0.67 -0.68 0.34 0 0 Z " fill="#C0BDD8" transform="translate(639,621)"/>
</svg>
